<?xml version="1.0" standalone="no"?>
<!DOCTYPE svg PUBLIC "-//W3C//DTD SVG 20010904//EN"
 "http://www.w3.org/TR/2001/REC-SVG-20010904/DTD/svg10.dtd">
<svg version="1.0" xmlns="http://www.w3.org/2000/svg"
 width="443.000000pt" height="158.000000pt" viewBox="0 0 443.000000 158.000000"
 preserveAspectRatio="xMidYMid meet">

<g transform="translate(0.000000,158.000000) scale(0.100000,-0.100000)"
fill="#000000" stroke="none">
<path d="M3814 1283 c-9 -6 -81 -167 -121 -270 -4 -9 7 -13 35 -13 36 0 41 3
51 30 9 28 13 30 60 30 48 0 51 -2 51 -25 0 -22 4 -25 35 -25 33 0 35 2 34 33
0 17 -8 79 -18 137 l-17 105 -49 3 c-28 1 -55 -1 -61 -5z m59 -105 c4 -28 5
-54 3 -56 -2 -2 -17 -2 -34 0 l-29 3 20 53 c11 28 23 52 27 52 4 0 10 -23 13
-52z"/>
<path d="M3530 1273 c-46 -4 -60 -15 -60 -45 0 -14 8 -18 38 -18 l39 0 -13
-92 c-19 -132 -20 -128 20 -128 39 0 37 -6 56 143 l12 87 38 0 c34 0 38 3 42
30 l5 30 -66 -2 c-36 -1 -86 -3 -111 -5z"/>
<path d="M3229 1253 l-37 -4 -10 -72 c-6 -40 -14 -103 -18 -141 l-7 -69 104 7
c57 4 104 8 105 9 1 1 4 13 6 27 3 25 2 25 -64 23 l-68 -1 0 29 c0 29 0 29 60
29 56 0 61 2 70 26 6 14 10 27 10 30 0 2 -29 4 -65 4 -64 0 -71 4 -59 34 5 12
21 16 74 16 68 0 68 0 72 30 l5 30 -71 -2 c-39 -1 -87 -3 -107 -5z"/>
<path d="M3015 1188 c-12 -106 -17 -108 -54 -24 -33 75 -34 76 -71 76 l-38 0
-10 -72 c-6 -40 -14 -103 -18 -140 l-7 -68 31 0 c35 0 38 5 47 93 4 37 11 69
15 72 4 3 23 -31 41 -76 l33 -80 36 3 35 3 17 120 c23 166 24 155 -16 155
l-34 0 -7 -62z"/>
<path d="M2564 1223 c-45 -9 -65 -46 -79 -145 -13 -92 -13 -93 10 -117 21 -22
27 -23 103 -16 108 9 121 23 138 146 11 83 11 95 -4 115 -15 21 -25 23 -82 22
-36 0 -75 -3 -86 -5z m101 -120 c-10 -94 -16 -103 -71 -103 l-45 0 7 63 c11
99 16 107 70 107 l46 0 -7 -67z"/>
<path d="M1964 1203 c-9 -6 -81 -167 -121 -270 -4 -9 7 -13 35 -13 36 0 41 3
51 30 9 28 13 30 60 30 48 0 51 -2 51 -25 0 -22 4 -25 35 -25 33 0 35 2 34 33
0 17 -8 79 -18 137 l-17 105 -49 3 c-28 1 -55 -1 -61 -5z m59 -105 c4 -28 5
-54 3 -56 -2 -2 -17 -2 -34 0 l-29 3 20 53 c11 28 23 52 27 52 4 0 10 -23 13
-52z"/>
<path d="M2222 1138 c-6 -40 -14 -103 -18 -140 l-7 -68 40 0 c22 0 68 3 102 6
60 7 61 7 61 37 l0 30 -61 -7 -62 -6 7 55 c3 30 9 80 12 110 l7 55 -35 0 -36
0 -10 -72z"/>
<path d="M1644 1183 c-45 -9 -65 -46 -79 -145 -13 -90 -12 -94 9 -117 19 -21
26 -23 90 -17 84 8 126 33 126 77 0 26 -3 29 -34 29 -28 0 -35 -4 -38 -22 -2
-19 -10 -24 -46 -26 l-43 -3 7 63 c10 95 17 108 59 108 28 0 35 -4 35 -20 0
-16 7 -20 34 -20 28 0 35 4 40 26 11 44 -26 74 -88 73 -28 -1 -61 -4 -72 -6z"/>
<path d="M1323 1172 c-44 -14 -73 -49 -73 -90 0 -55 23 -72 94 -72 43 0 58 -4
63 -16 11 -28 -25 -44 -99 -44 l-68 0 0 -31 0 -32 93 6 c86 6 94 9 120 37 19
22 27 41 27 69 0 55 -22 71 -98 71 -44 0 -62 4 -62 13 0 27 25 37 92 37 37 0
68 3 68 8 0 4 3 17 6 30 6 21 4 22 -67 21 -41 -1 -84 -4 -96 -7z"/>
<path d="M854 1153 c-9 -6 -81 -167 -121 -270 -4 -9 7 -13 35 -13 36 0 41 3
51 30 9 28 13 30 60 30 48 0 51 -2 51 -25 0 -22 4 -25 35 -25 33 0 35 2 34 33
0 17 -8 79 -18 137 l-17 105 -49 3 c-28 1 -55 -1 -61 -5z m59 -105 c4 -28 5
-54 3 -56 -2 -2 -17 -2 -34 0 l-29 3 20 53 c11 28 23 52 27 52 4 0 10 -23 13
-52z"/>
<path d="M492 1068 c-6 -40 -14 -103 -18 -140 l-7 -68 40 0 c22 0 68 3 102 6
60 7 61 7 61 37 l0 30 -61 -7 -62 -6 7 55 c3 30 9 80 12 110 l7 55 -35 0 -36
0 -10 -72z"/>
<path d="M3359 853 l-37 -4 -10 -72 c-6 -40 -14 -103 -18 -141 l-7 -69 99 7
c81 5 103 11 121 28 28 26 40 84 24 110 -8 12 -9 24 -3 31 5 7 12 26 15 43 5
25 1 36 -17 53 -23 21 -64 25 -167 14z m109 -75 c-2 -19 -10 -24 -45 -26 -43
-3 -49 2 -37 32 4 11 19 16 46 16 35 0 39 -2 36 -22z m-4 -87 c4 -5 2 -21 -4
-35 -8 -22 -16 -26 -50 -26 -37 0 -40 2 -40 28 0 16 3 32 7 35 10 10 81 8 87
-2z"/>
<path d="M3147 843 c-3 -5 -10 -51 -17 -103 -7 -52 -17 -101 -23 -107 -5 -7
-28 -13 -50 -13 l-40 0 6 63 c4 34 9 83 13 110 l7 47 -36 0 c-39 0 -37 7 -57
-148 -10 -73 -9 -87 5 -109 17 -25 19 -25 98 -18 120 10 131 21 146 148 7 56
14 110 17 120 4 14 -1 17 -30 17 -19 0 -37 -3 -39 -7z"/>
<path d="M2682 758 c-6 -40 -14 -103 -18 -140 l-7 -68 40 0 c22 0 68 3 102 6
60 7 61 7 61 37 l0 30 -61 -7 -62 -6 7 55 c3 30 9 80 12 110 l7 55 -35 0 -36
0 -10 -72z"/>
<path d="M2434 813 c-45 -9 -65 -46 -79 -145 -13 -90 -12 -94 9 -117 19 -21
26 -23 90 -17 84 8 126 33 126 77 0 26 -3 29 -34 29 -28 0 -35 -4 -38 -22 -2
-19 -10 -24 -46 -26 l-43 -3 7 63 c10 95 17 108 59 108 28 0 35 -4 35 -20 0
-16 7 -20 34 -20 28 0 35 4 40 26 11 44 -26 74 -88 73 -28 -1 -61 -4 -72 -6z"/>
<path d="M1963 792 c-44 -14 -73 -49 -73 -90 0 -55 23 -72 94 -72 43 0 58 -4
63 -16 11 -28 -25 -44 -99 -44 l-68 0 0 -31 0 -32 93 6 c86 6 94 9 120 37 19
22 27 41 27 69 0 55 -22 71 -98 71 -44 0 -62 4 -62 13 0 27 25 37 92 37 37 0
68 3 68 8 0 4 3 17 6 30 6 21 4 22 -67 21 -41 -1 -84 -4 -96 -7z"/>
<path d="M1735 728 c-12 -106 -17 -108 -54 -24 -33 75 -34 76 -71 76 l-38 0
-10 -72 c-6 -40 -14 -103 -18 -140 l-7 -68 31 0 c35 0 38 5 47 93 4 37 11 69
15 72 4 3 23 -31 41 -76 l33 -80 36 3 35 3 17 120 c23 166 24 155 -16 155
l-34 0 -7 -62z"/>
<path d="M1304 763 c-9 -6 -81 -167 -121 -270 -4 -9 7 -13 35 -13 36 0 41 3
51 30 9 28 13 30 60 30 48 0 51 -2 51 -25 0 -22 4 -25 35 -25 33 0 35 2 34 33
0 17 -8 79 -18 137 l-17 105 -49 3 c-28 1 -55 -1 -61 -5z m59 -105 c4 -28 5
-54 3 -56 -2 -2 -17 -2 -34 0 l-29 3 20 53 c11 28 23 52 27 52 4 0 10 -23 13
-52z"/>
<path d="M1009 753 l-37 -4 -10 -72 c-6 -40 -14 -103 -18 -140 l-7 -68 34 3
c33 3 34 5 43 55 l9 52 63 7 c59 6 64 8 64 30 0 23 -3 24 -60 24 -51 0 -60 3
-60 18 0 33 15 41 80 44 63 3 65 4 68 31 l3 27 -68 -2 c-37 -1 -84 -3 -104 -5z"/>
</g>
</svg>
