<?xml version="1.0" standalone="no"?>
<!DOCTYPE svg PUBLIC "-//W3C//DTD SVG 20010904//EN"
 "http://www.w3.org/TR/2001/REC-SVG-20010904/DTD/svg10.dtd">
<svg version="1.0" xmlns="http://www.w3.org/2000/svg"
 width="500.000000pt" height="500.000000pt" viewBox="0 0 500.000000 500.000000"
 preserveAspectRatio="xMidYMid meet">

<g transform="translate(0.000000,500.000000) scale(0.100000,-0.100000)"
fill="#000000" stroke="none">
<path d="M2485 4050 c-6 -10 -35 -682 -34 -775 1 -48 1 -48 9 -15 4 19 13 199
20 400 11 329 17 400 33 373 2 -4 10 -172 17 -373 7 -201 16 -378 20 -395 7
-26 8 -24 9 20 1 93 -28 756 -34 765 -8 13 -32 13 -40 0z"/>
<path d="M2218 4018 c-49 -38 -50 -129 -1 -251 36 -91 37 -94 39 -245 2 -125
7 -167 25 -225 12 -40 24 -66 26 -59 3 7 -3 34 -12 60 -13 34 -19 96 -24 222
-7 169 -8 178 -41 255 -37 88 -45 164 -20 209 16 32 34 34 24 4 -15 -48 -7
-97 28 -160 63 -116 70 -143 78 -293 8 -135 14 -162 59 -279 6 -16 14 -27 16
-24 3 2 -9 45 -26 94 -26 74 -31 104 -31 179 0 127 -19 209 -74 314 -39 77
-46 96 -41 128 4 21 8 47 9 57 4 24 -13 30 -34 14z"/>
<path d="M2787 4000 c-44 -35 -68 -100 -68 -182 1 -100 -15 -180 -51 -257 -50
-109 -67 -168 -73 -249 -3 -52 -2 -70 4 -57 5 11 10 38 10 60 2 56 22 128 64
221 48 108 57 145 57 245 0 95 11 138 47 187 36 47 60 43 28 -6 -24 -36 -25
-42 -22 -187 2 -145 1 -152 -26 -215 -45 -104 -58 -149 -64 -240 -8 -112 7
-96 18 19 6 68 17 109 46 177 l38 89 0 161 0 161 29 37 c23 31 26 40 15 47
-20 12 -23 11 -52 -11z"/>
<path d="M1905 3927 c-5 -12 236 -681 250 -695 18 -18 -1 38 -111 333 -117
314 -142 395 -110 352 7 -9 82 -168 167 -352 84 -184 156 -335 161 -335 4 0
-1 19 -11 43 -28 63 -264 576 -286 622 -21 41 -51 57 -60 32z"/>
<path d="M3063 3928 c-9 -11 -262 -557 -299 -645 -8 -18 -11 -33 -7 -33 5 0
53 98 107 218 159 346 219 468 223 451 2 -9 -50 -161 -116 -339 -103 -279
-127 -351 -107 -329 13 14 246 665 242 676 -7 16 -31 17 -43 1z"/>
<path d="M1666 3795 c-10 -28 -7 -84 8 -120 8 -19 46 -68 84 -108 72 -76 98
-118 137 -221 33 -87 47 -116 57 -116 5 0 2 13 -6 29 -9 16 -29 65 -45 110
-35 95 -52 122 -141 217 -72 76 -99 138 -85 191 7 27 8 26 20 -18 16 -61 26
-73 114 -149 83 -71 118 -122 157 -222 26 -70 78 -148 102 -156 7 -2 -4 19
-25 46 -21 28 -50 84 -66 124 -34 92 -77 150 -165 225 -82 69 -94 85 -101 138
-6 42 -33 60 -45 30z"/>
<path d="M3295 3761 c-45 -27 -81 -74 -104 -137 -36 -94 -50 -115 -156 -224
-100 -104 -136 -150 -115 -150 5 0 10 5 10 10 0 6 50 62 110 125 81 84 118
130 140 177 17 35 30 68 30 74 0 20 60 94 93 114 35 21 67 26 67 10 0 -5 -6
-10 -14 -10 -31 0 -76 -61 -97 -133 -35 -117 -75 -184 -161 -274 -44 -46 -78
-86 -76 -89 9 -8 151 144 184 197 17 27 44 90 60 140 28 90 49 120 109 155 11
6 15 15 11 22 -11 18 -57 14 -91 -7z"/>
<path d="M1415 3601 c-3 -6 -2 -17 2 -25 15 -26 336 -367 341 -362 2 3 -70 86
-162 185 -146 158 -188 211 -157 199 5 -1 99 -87 210 -190 111 -104 207 -188
214 -188 6 1 0 11 -14 23 -15 12 -109 99 -209 192 -174 163 -210 189 -225 166z"/>
<path d="M3415 3479 c-163 -151 -235 -223 -219 -218 7 2 93 79 192 172 100 92
183 167 186 167 20 0 -8 -38 -111 -149 -64 -69 -130 -141 -147 -158 -16 -18
-25 -33 -20 -33 16 0 306 320 301 333 -11 34 -48 11 -182 -114z"/>
<path d="M2675 3474 c-27 -57 -47 -234 -26 -234 4 0 11 42 13 93 3 52 12 109
22 131 21 50 14 58 -9 10z"/>
<path d="M2301 3454 c-1 -43 39 -207 54 -222 16 -16 12 14 -11 79 -14 40 -29
101 -34 134 l-7 60 -2 -51z"/>
<path d="M2499 3360 c-3 -63 -2 -119 2 -123 13 -17 15 9 9 123 l-6 115 -5
-115z"/>
<path d="M2149 3363 c47 -118 54 -133 62 -133 10 0 4 16 -40 113 -35 77 -50
91 -22 20z"/>
<path d="M2835 3334 c-39 -85 -39 -84 -26 -84 5 0 13 12 19 28 5 15 19 51 31
80 31 78 15 63 -24 -24z"/>
<path d="M1244 3385 c-10 -24 3 -57 37 -98 32 -39 114 -87 146 -87 10 1 -9 14
-43 29 -63 29 -119 85 -127 127 -7 37 7 37 28 -1 23 -43 47 -59 121 -81 32 -9
83 -27 113 -40 29 -13 59 -24 65 -24 21 1 -59 39 -139 66 -111 37 -128 47
-150 88 -20 38 -42 46 -51 21z"/>
<path d="M3655 3346 c-48 -22 -110 -76 -88 -76 5 0 18 10 29 21 28 32 93 59
142 59 53 0 55 -16 3 -23 -40 -5 -102 -38 -83 -45 6 -2 21 3 34 12 13 8 40 18
61 21 45 9 56 23 32 42 -28 19 -74 16 -130 -11z"/>
<path d="M3011 3315 c-22 -24 -41 -50 -40 -57 0 -7 8 -2 17 12 9 13 30 39 46
57 42 49 25 40 -23 -12z"/>
<path d="M1945 3330 c12 -39 32 -75 51 -91 10 -8 3 11 -16 46 -40 72 -45 78
-35 45z"/>
<path d="M3618 3243 c-24 -29 -30 -43 -16 -38 15 6 42 45 35 51 -2 2 -11 -4
-19 -13z"/>
<path d="M3510 3225 c-13 -14 -19 -25 -13 -25 5 0 20 11 33 25 13 14 19 25 13
25 -5 0 -20 -11 -33 -25z"/>
<path d="M3000 3220 c-6 -12 -9 -24 -7 -27 3 -2 11 5 17 17 6 12 9 24 7 27 -3
2 -11 -5 -17 -17z"/>
<path d="M3136 3219 c-15 -12 -25 -24 -22 -26 3 -3 19 6 36 21 37 31 25 35
-14 5z"/>
<path d="M3245 3220 c-27 -30 -12 -34 15 -5 13 14 19 25 13 25 -5 0 -18 -9
-28 -20z"/>
<path d="M2635 3215 c-3 -8 -7 -22 -10 -30 -2 -9 2 -15 10 -15 10 0 15 10 15
30 0 32 -8 40 -15 15z"/>
<path d="M2688 3205 c-3 -14 -1 -25 3 -25 5 0 9 11 9 25 0 14 -2 25 -4 25 -2
0 -6 -11 -8 -25z"/>
<path d="M2730 3210 c-6 -12 -9 -24 -7 -27 3 -2 11 5 17 17 6 12 9 24 7 27 -3
2 -11 -5 -17 -17z"/>
<path d="M2781 3212 c-14 -26 -7 -42 10 -25 6 6 9 19 7 29 -3 17 -5 17 -17 -4z"/>
<path d="M2835 3209 c-10 -30 0 -33 13 -4 6 14 7 25 2 25 -5 0 -12 -9 -15 -21z"/>
<path d="M2886 3214 c-9 -24 -7 -28 9 -14 17 14 20 30 6 30 -5 0 -12 -7 -15
-16z"/>
<path d="M2940 3210 c-7 -13 -7 -20 -1 -20 6 0 15 9 21 20 7 13 7 20 1 20 -6
0 -15 -9 -21 -20z"/>
<path d="M2421 3203 c-1 -12 4 -25 9 -28 12 -7 12 2 0 30 -8 19 -9 19 -9 -2z"/>
<path d="M2452 3195 c0 -16 2 -22 5 -12 2 9 2 23 0 30 -3 6 -5 -1 -5 -18z"/>
<path d="M2490 3195 c0 -16 6 -25 15 -25 9 0 15 9 15 25 0 16 -6 25 -15 25 -9
0 -15 -9 -15 -25z"/>
<path d="M2552 3195 c0 -16 2 -22 5 -12 2 9 2 23 0 30 -3 6 -5 -1 -5 -18z"/>
<path d="M2580 3193 c0 -22 2 -25 10 -13 13 20 13 40 0 40 -5 0 -10 -12 -10
-27z"/>
<path d="M2035 3186 c17 -25 52 -46 39 -23 -13 22 -37 47 -46 47 -5 0 -1 -11
7 -24z"/>
<path d="M2100 3185 c13 -14 28 -25 33 -25 6 0 0 11 -13 25 -13 14 -28 25 -33
25 -6 0 0 -11 13 -25z"/>
<path d="M2167 3190 c6 -22 23 -38 23 -21 0 17 -12 41 -20 41 -5 0 -6 -9 -3
-20z"/>
<path d="M2210 3202 c0 -15 28 -47 35 -40 8 8 -13 48 -25 48 -6 0 -10 -4 -10
-8z"/>
<path d="M2270 3204 c0 -5 7 -19 15 -30 8 -10 15 -14 15 -8 0 5 -7 19 -15 30
-8 10 -15 14 -15 8z"/>
<path d="M2310 3196 c0 -8 5 -18 10 -21 6 -3 10 1 10 9 0 8 -4 18 -10 21 -5 3
-10 -1 -10 -9z"/>
<path d="M2360 3190 c0 -11 7 -20 15 -20 17 0 18 2 9 24 -9 23 -24 20 -24 -4z"/>
<path d="M1900 3175 c13 -14 28 -25 33 -25 6 0 0 11 -13 25 -13 14 -28 25 -33
25 -6 0 0 -11 13 -25z"/>
<path d="M1982 3178 c8 -12 21 -24 28 -26 8 -3 6 5 -6 21 -23 32 -42 36 -22 5z"/>
<path d="M1629 3166 c14 -14 29 -26 34 -26 13 0 -12 29 -37 42 -19 10 -18 8 3
-16z"/>
<path d="M1782 3178 c2 -6 15 -18 29 -27 l24 -15 -24 27 c-26 29 -35 34 -29
15z"/>
<path d="M1845 3170 c10 -11 23 -20 28 -20 6 0 2 9 -8 20 -10 11 -23 20 -28
20 -6 0 -2 -9 8 -20z"/>
<path d="M1480 3176 c0 -8 71 -48 76 -43 6 6 -50 47 -65 47 -6 0 -11 -2 -11
-4z"/>
<path d="M1098 3113 c6 -2 18 -2 25 0 6 3 1 5 -13 5 -14 0 -19 -2 -12 -5z"/>
<path d="M4145 2931 l-39 -6 -51 -120 c-28 -66 -54 -128 -58 -137 -5 -15 -1
-18 28 -18 28 0 37 5 50 30 14 27 20 30 65 30 47 0 50 -2 50 -25 0 -22 4 -25
35 -25 41 0 41 -3 20 130 -27 169 -16 154 -100 141z m29 -88 c10 -64 8 -70
-26 -77 -17 -3 -33 -4 -36 -1 -6 6 39 115 48 115 4 0 10 -17 14 -37z"/>
<path d="M3859 2923 c-72 -4 -77 -5 -81 -28 -7 -32 -1 -36 39 -29 18 3 33 2
33 -2 0 -5 -7 -54 -15 -109 -8 -55 -15 -102 -15 -105 0 -4 16 -4 35 -2 19 2
35 7 35 11 1 10 19 143 25 178 5 28 10 32 43 35 32 3 37 7 40 31 3 25 1 27
-30 25 -18 -1 -67 -4 -109 -5z"/>
<path d="M3559 2903 l-66 -4 -17 -135 c-10 -75 -16 -137 -14 -139 2 -2 49 -1
106 2 l102 6 0 27 0 27 -72 -5 c-65 -4 -71 -3 -65 12 4 10 7 24 7 31 0 9 21
16 65 20 61 7 65 9 65 33 0 25 -1 25 -61 19 l-60 -7 3 28 c3 26 6 27 73 32 68
5 70 6 73 33 4 30 19 28 -139 20z"/>
<path d="M3327 2893 c-3 -5 -8 -37 -12 -73 -4 -36 -10 -71 -14 -78 -4 -7 -20
19 -40 68 -33 80 -34 80 -70 80 l-37 0 -17 -128 c-21 -161 -22 -152 12 -152
31 0 32 3 47 118 4 28 10 52 14 52 4 0 23 -36 43 -80 33 -74 39 -80 66 -80 33
0 34 0 51 140 6 47 13 97 16 113 5 25 3 27 -25 27 -16 0 -32 -3 -34 -7z"/>
<path d="M2894 2873 c-76 -6 -91 -26 -106 -145 -16 -130 -11 -136 105 -130
112 6 123 16 140 144 14 96 13 98 -8 118 -13 12 -33 19 -51 18 -16 -1 -52 -3
-80 -5z m72 -124 c-10 -99 -10 -99 -68 -99 l-50 0 6 68 c11 103 10 102 68 102
l51 0 -7 -71z"/>
<path d="M2295 2851 l-39 -6 -51 -120 c-28 -66 -54 -128 -58 -137 -5 -15 -1
-18 28 -18 28 0 37 5 50 30 14 27 20 30 65 30 47 0 50 -2 50 -25 0 -22 4 -25
35 -25 41 0 41 -3 20 130 -27 169 -16 154 -100 141z m29 -88 c10 -64 8 -70
-26 -77 -17 -3 -33 -4 -36 -1 -6 6 39 115 48 115 4 0 10 -17 14 -37z"/>
<path d="M2516 2724 c-10 -74 -16 -137 -14 -140 2 -2 47 0 99 4 91 7 94 8 97
33 3 25 3 25 -63 21 -65 -4 -66 -4 -61 19 6 25 26 174 26 190 0 5 -15 9 -33 9
l-34 0 -17 -136z"/>
<path d="M1974 2833 c-76 -6 -91 -26 -106 -145 -11 -88 -10 -99 5 -116 15 -17
28 -19 90 -15 64 4 75 8 100 34 37 40 36 69 -3 69 -23 0 -33 -6 -40 -25 -8
-21 -16 -25 -51 -25 l-41 0 6 68 c11 103 11 104 59 100 34 -2 41 -7 39 -20 -2
-14 4 -18 31 -18 31 0 35 3 39 30 5 34 -26 71 -58 68 -10 -1 -42 -3 -70 -5z"/>
<path d="M1654 2823 c-61 -5 -92 -31 -101 -87 -9 -57 15 -76 94 -76 55 0 63
-2 63 -19 0 -30 -21 -40 -95 -43 -68 -3 -70 -4 -73 -30 l-3 -28 93 6 c110 8
134 22 144 91 10 66 -12 85 -91 82 -58 -3 -60 -2 -60 22 0 23 3 24 76 27 77 3
77 3 81 32 5 33 10 32 -128 23z"/>
<path d="M1185 2801 l-39 -6 -51 -120 c-28 -66 -54 -128 -58 -137 -5 -15 -1
-18 28 -18 28 0 37 5 50 30 14 27 20 30 65 30 47 0 50 -2 50 -25 0 -22 4 -25
35 -25 41 0 41 -3 20 130 -27 169 -16 154 -100 141z m29 -88 c10 -64 8 -70
-26 -77 -17 -3 -33 -4 -36 -1 -6 6 39 115 48 115 4 0 10 -17 14 -37z"/>
<path d="M786 2654 c-10 -74 -16 -137 -14 -140 2 -2 47 0 99 4 91 7 94 8 97
33 3 25 3 25 -63 21 -65 -4 -66 -4 -61 19 6 25 26 174 26 190 0 5 -15 9 -33 9
l-34 0 -17 -136z"/>
<path d="M3689 2503 l-66 -4 -16 -127 c-9 -71 -17 -133 -17 -140 0 -8 26 -10
98 -5 77 4 101 10 119 25 27 25 40 92 22 114 -9 11 -9 18 -1 26 7 7 12 28 12
48 0 43 -25 71 -61 68 -13 -1 -54 -3 -90 -5z m83 -78 c-5 -24 1 -21 -49 -28
-42 -5 -43 -5 -43 24 0 30 1 30 48 27 41 -3 47 -6 44 -23z m-4 -98 c6 -30 -17
-47 -65 -47 -37 0 -44 3 -39 16 3 9 6 25 6 35 0 18 6 20 47 17 37 -2 49 -7 51
-21z"/>
<path d="M3449 2498 c-1 -2 -8 -52 -18 -113 l-16 -110 -44 -3 c-24 -2 -47 0
-51 5 -5 4 -2 51 6 103 7 52 13 98 14 103 0 4 -16 7 -35 7 -21 0 -35 -5 -35
-12 0 -7 -7 -60 -15 -118 -13 -101 -13 -106 6 -125 16 -17 30 -19 97 -17 106
5 121 20 138 139 20 138 19 143 -16 143 -16 0 -30 -1 -31 -2z"/>
<path d="M2976 2344 c-10 -74 -16 -137 -14 -140 2 -2 47 0 99 4 91 7 94 8 97
33 3 25 3 25 -63 21 -65 -4 -66 -4 -61 19 6 25 26 174 26 190 0 5 -15 9 -33 9
l-34 0 -17 -136z"/>
<path d="M2764 2463 c-76 -6 -91 -26 -106 -145 -11 -88 -10 -99 5 -116 15 -17
28 -19 90 -15 64 4 75 8 100 34 37 40 36 69 -3 69 -23 0 -33 -6 -40 -25 -8
-21 -16 -25 -51 -25 l-41 0 6 68 c11 103 11 104 59 100 34 -2 41 -7 39 -20 -2
-14 4 -18 31 -18 31 0 35 3 39 30 5 34 -26 71 -58 68 -10 -1 -42 -3 -70 -5z"/>
<path d="M2294 2443 c-61 -5 -92 -31 -101 -87 -9 -57 15 -76 94 -76 55 0 63
-2 63 -19 0 -30 -21 -40 -95 -43 -68 -3 -70 -4 -73 -30 l-3 -28 93 6 c110 8
134 22 144 91 10 66 -12 85 -91 82 -58 -3 -60 -2 -60 22 0 23 3 24 76 27 77 3
77 3 81 32 5 33 10 32 -128 23z"/>
<path d="M2047 2433 c-3 -5 -8 -37 -12 -73 -4 -36 -10 -71 -14 -78 -4 -7 -20
19 -40 68 -33 80 -34 80 -70 80 l-37 0 -17 -128 c-21 -161 -22 -152 12 -152
31 0 32 3 47 118 4 28 10 52 14 52 4 0 23 -36 43 -80 33 -74 39 -80 66 -80 33
0 34 0 51 140 6 47 13 97 16 113 5 25 3 27 -25 27 -16 0 -32 -3 -34 -7z"/>
<path d="M1635 2411 l-39 -6 -51 -120 c-28 -66 -54 -128 -58 -137 -5 -15 -1
-18 28 -18 28 0 37 5 50 30 14 27 20 30 65 30 47 0 50 -2 50 -25 0 -22 4 -25
35 -25 41 0 41 -3 20 130 -27 169 -16 154 -100 141z m29 -88 c10 -64 8 -70
-26 -77 -17 -3 -33 -4 -36 -1 -6 6 39 115 48 115 4 0 10 -17 14 -37z"/>
<path d="M1339 2403 l-66 -4 -16 -127 c-22 -165 -23 -154 15 -150 31 3 33 6
40 50 3 26 9 52 13 57 3 6 30 11 60 11 39 0 54 4 59 16 12 30 6 34 -55 34 -60
0 -60 0 -57 28 3 26 5 27 73 32 68 5 70 6 73 33 4 30 19 28 -139 20z"/>
<path d="M3740 1976 c0 -3 38 -17 85 -32 64 -21 88 -25 97 -16 14 14 -3 37
-35 46 -21 5 -21 4 3 -14 41 -31 16 -33 -60 -6 -70 26 -90 30 -90 22z"/>
<path d="M3420 1935 c19 -20 44 -41 55 -47 12 -6 5 5 -15 26 -19 20 -44 42
-55 48 -12 6 -5 -5 15 -27z"/>
<path d="M3035 1915 c28 -24 55 -44 60 -44 6 -1 -12 19 -40 44 -27 24 -54 44
-60 44 -5 1 13 -19 40 -44z"/>
<path d="M3100 1915 c24 -25 49 -45 54 -45 6 0 -10 20 -34 45 -24 25 -49 45
-54 45 -6 0 10 -20 34 -45z"/>
<path d="M3160 1915 c24 -24 46 -42 49 -40 6 7 -70 85 -83 85 -6 0 10 -20 34
-45z"/>
<path d="M3318 1920 c22 -22 43 -40 48 -40 4 0 -10 18 -31 40 -21 22 -43 40
-48 40 -5 0 9 -18 31 -40z"/>
<path d="M2880 1943 c1 -14 59 -73 72 -73 9 0 9 3 3 8 -6 4 -21 22 -34 40 -21
30 -41 42 -41 25z"/>
<path d="M2971 1911 c45 -52 60 -52 19 -1 -17 22 -36 40 -42 40 -6 0 5 -18 23
-39z"/>
<path d="M2620 1924 c-43 -10 -97 -13 -161 -9 l-95 6 -3 -42 c-2 -37 0 -41 13
-30 8 7 16 22 18 34 2 12 11 23 20 25 15 3 17 -2 13 -30 -5 -31 -5 -32 6 -8
l12 25 7 -25 8 -25 1 28 c1 35 31 38 31 2 0 -16 6 -25 15 -25 9 0 15 9 15 25
0 16 6 25 15 25 10 0 15 -10 15 -27 0 -22 2 -25 10 -13 6 10 10 11 10 3 0 -7
4 -13 8 -13 5 0 7 14 4 30 -3 22 0 30 11 30 9 0 18 -13 22 -30 4 -17 13 -30
21 -30 12 0 13 8 8 35 -9 50 20 48 35 -2 l11 -38 -5 40 c-4 37 -3 38 10 21 8
-11 15 -26 15 -33 0 -7 5 -13 10 -13 6 0 10 2 10 5 0 10 -34 75 -39 74 -3 -1
-35 -8 -71 -15z"/>
<path d="M2747 1901 c9 -23 22 -41 29 -41 19 0 -8 74 -29 78 -15 3 -15 0 0
-37z"/>
<path d="M2802 1915 c6 -14 15 -25 19 -25 5 0 3 11 -3 25 -6 14 -15 25 -19 25
-5 0 -3 -11 3 -25z"/>
<path d="M2836 1915 c9 -14 20 -25 25 -25 5 0 2 11 -7 25 -9 14 -20 25 -25 25
-5 0 -2 -11 7 -25z"/>
<path d="M2190 1909 c0 -5 5 -7 10 -4 6 3 10 8 10 11 0 2 -4 4 -10 4 -5 0 -10
-5 -10 -11z"/>
<path d="M2232 1887 c-14 -40 -15 -47 -3 -47 5 0 11 8 15 18 3 9 10 27 16 40
7 16 6 22 -3 22 -7 0 -18 -15 -25 -33z"/>
<path d="M2296 1904 c-10 -26 -6 -40 5 -20 9 15 13 16 20 5 6 -10 9 -8 9 9 0
25 -25 30 -34 6z"/>
<path d="M1940 1900 c-9 -6 -10 -10 -3 -10 6 0 15 5 18 10 8 12 4 12 -15 0z"/>
<path d="M2020 1870 c-11 -22 -16 -40 -10 -40 5 0 10 2 10 4 0 2 7 20 15 40
20 48 10 46 -15 -4z"/>
<path d="M1810 1889 c0 -5 5 -7 10 -4 6 3 10 8 10 11 0 2 -4 4 -10 4 -5 0 -10
-5 -10 -11z"/>
<path d="M1549 1867 c-46 -28 -71 -49 -65 -55 3 -2 27 11 53 30 26 20 55 38
63 41 13 5 13 5 0 5 -8 0 -31 -10 -51 -21z"/>
<path d="M2070 1869 c-6 -11 -9 -25 -7 -32 2 -7 11 3 21 21 9 17 12 32 7 32
-6 0 -15 -9 -21 -21z"/>
<path d="M2130 1870 c-6 -12 -9 -24 -7 -27 3 -2 11 5 17 17 6 12 9 24 7 27 -3
2 -11 -5 -17 -17z"/>
<path d="M2180 1881 c0 -5 -3 -17 -7 -27 -4 -11 -3 -15 4 -11 14 9 24 47 12
47 -5 0 -9 -4 -9 -9z"/>
<path d="M1884 1849 c-21 -23 -23 -29 -9 -21 25 13 62 52 48 52 -5 0 -22 -14
-39 -31z"/>
<path d="M2820 1870 c0 -5 5 -10 11 -10 5 0 7 5 4 10 -3 6 -8 10 -11 10 -2 0
-4 -4 -4 -10z"/>
<path d="M2875 1870 c3 -5 8 -10 11 -10 2 0 4 5 4 10 0 6 -5 10 -11 10 -5 0
-7 -4 -4 -10z"/>
<path d="M1767 1845 c-10 -14 -14 -25 -9 -25 10 0 42 33 42 43 0 14 -16 5 -33
-18z"/>
<path d="M1830 1855 c-7 -8 -8 -15 -2 -15 5 0 15 7 22 15 7 8 8 15 2 15 -5 0
-15 -7 -22 -15z"/>
<path d="M1400 1830 c-12 -16 -15 -27 -8 -25 17 8 52 55 39 55 -5 0 -19 -13
-31 -30z"/>
<path d="M2275 1850 c-3 -5 -1 -10 4 -10 6 0 11 5 11 10 0 6 -2 10 -4 10 -3 0
-8 -4 -11 -10z"/>
<path d="M3470 1801 c8 -6 51 -23 95 -37 110 -37 128 -47 150 -88 30 -55 63
-45 50 16 -8 35 -86 118 -111 118 -11 0 -2 -11 22 -29 42 -30 67 -62 76 -98
10 -37 -7 -35 -27 3 -22 41 -59 62 -162 93 -40 12 -80 24 -90 27 -15 5 -16 4
-3 -5z"/>
<path d="M3301 1763 c264 -283 299 -323 273 -323 -3 0 -91 79 -195 176 -105
97 -192 174 -195 172 -3 -3 83 -87 191 -188 162 -150 199 -179 211 -170 7 7
14 16 14 21 0 13 -312 349 -324 349 -5 0 6 -17 25 -37z"/>
<path d="M2978 1748 c16 -24 39 -70 51 -103 33 -90 63 -131 167 -230 86 -81
96 -94 101 -133 10 -75 53 -66 53 11 0 59 -23 101 -100 182 -70 74 -110 143
-155 268 -9 26 -21 47 -26 47 -6 0 -6 -7 0 -19 6 -10 24 -55 40 -99 35 -96 52
-123 141 -218 72 -76 99 -138 85 -191 -7 -27 -8 -26 -20 18 -16 60 -26 74
-105 140 -83 71 -133 137 -160 213 -24 66 -76 156 -92 156 -5 0 4 -19 20 -42z"/>
<path d="M3038 1741 c15 -27 28 -48 30 -46 7 6 -37 95 -46 95 -6 0 2 -22 16
-49z"/>
<path d="M2770 1753 c0 -22 289 -638 304 -648 11 -6 19 -6 27 2 10 10 -15 85
-107 333 -65 176 -122 320 -126 320 -7 0 7 -42 141 -403 78 -209 94 -264 71
-241 -6 6 -75 151 -154 323 -139 302 -156 336 -156 314z"/>
<path d="M2820 1753 c0 -16 47 -123 54 -123 3 0 -4 23 -15 52 -25 63 -38 88
-39 71z"/>
<path d="M2504 1660 c0 -52 1 -74 3 -47 2 26 2 68 0 95 -2 26 -3 4 -3 -48z"/>
<path d="M2610 1747 c0 -2 9 -30 21 -63 15 -44 21 -90 24 -179 3 -134 14 -177
76 -293 40 -76 47 -111 29 -158 -7 -17 -7 -31 -1 -37 15 -15 48 9 60 44 20 58
13 115 -26 207 -36 86 -37 89 -38 233 -2 139 -18 249 -35 249 -5 0 -2 -24 6
-52 9 -33 14 -105 14 -191 0 -135 1 -140 36 -230 40 -100 48 -176 24 -221 -16
-32 -34 -34 -24 -4 15 48 7 97 -28 160 -63 116 -70 143 -79 293 -7 132 -26
226 -50 241 -5 3 -9 3 -9 1z"/>
<path d="M2665 1733 c15 -37 28 -90 35 -143 l7 -55 2 49 c1 55 -26 166 -41
166 -6 0 -7 -8 -3 -17z"/>
<path d="M2116 1709 c-7 -19 -60 -159 -116 -312 -79 -213 -100 -281 -91 -290
8 -8 17 -8 27 -2 17 11 296 613 291 628 -1 5 -67 -131 -146 -302 -79 -171
-148 -314 -152 -317 -20 -12 -4 39 101 322 61 163 108 299 105 302 -3 3 -11
-10 -19 -29z"/>
<path d="M2173 1728 c-15 -19 -46 -105 -34 -93 10 11 53 105 47 105 -2 0 -8
-6 -13 -12z"/>
<path d="M2300 1693 c0 -27 -11 -77 -24 -113 -73 -197 -68 -173 -64 -325 l3
-141 -29 -38 c-23 -31 -26 -40 -15 -47 20 -12 23 -11 52 11 45 36 67 97 67
188 0 106 14 168 62 274 21 49 45 118 53 155 18 82 18 83 5 83 -5 0 -10 -12
-10 -27 0 -43 -24 -122 -63 -209 -48 -108 -57 -145 -57 -245 0 -95 -11 -138
-47 -186 -35 -48 -61 -44 -28 5 23 36 24 42 22 187 -2 145 -1 152 26 215 39
90 54 138 62 204 5 39 4 56 -4 56 -6 0 -11 -19 -11 -47z"/>
<path d="M2350 1702 c0 -35 -16 -109 -35 -157 l-7 -20 14 20 c30 40 60 195 38
195 -5 0 -10 -17 -10 -38z"/>
<path d="M2450 1733 c5 -178 31 -736 35 -743 8 -12 32 -13 39 -1 3 5 10 121
16 257 5 137 12 304 15 372 3 67 2 122 -3 122 -5 0 -14 -163 -21 -362 -12
-328 -18 -398 -34 -371 -2 4 -11 171 -18 371 -7 199 -16 362 -21 362 -4 0 -8
-3 -8 -7z"/>
<path d="M1901 1703 c-62 -49 -116 -135 -151 -243 -33 -99 -50 -126 -104 -163
-53 -36 13 -53 70 -18 45 27 77 74 115 166 29 70 45 93 132 183 55 56 96 102
90 102 -5 0 -50 -42 -101 -93 -66 -67 -100 -111 -122 -158 -16 -35 -30 -69
-30 -75 0 -20 -60 -94 -93 -114 -35 -21 -67 -26 -67 -10 0 6 6 10 14 10 31 0
76 61 97 133 32 108 85 201 142 253 55 49 61 68 8 27z"/>
<path d="M1969 1704 c-23 -25 -23 -26 -2 -13 13 7 25 19 27 26 8 19 2 16 -25
-13z"/>
<path d="M1592 1580 c-82 -77 -153 -140 -156 -140 -20 0 8 37 110 146 64 68
112 124 106 124 -17 0 -244 -250 -239 -263 11 -33 43 -13 154 90 64 59 135
125 157 145 23 20 36 37 30 38 -6 0 -79 -63 -162 -140z"/>
<path d="M1220 1689 c0 -21 71 -24 114 -6 27 12 23 13 -42 12 -40 0 -72 -3
-72 -6z"/>
</g>
</svg>
